<?xml version="1.0" encoding="UTF-8"?>
<svg width="22px" height="20px" viewBox="0 0 22 20" version="1.1" xmlns="http://www.w3.org/2000/svg" xmlns:xlink="http://www.w3.org/1999/xlink">
    <g id="页面-1" stroke="none" stroke-width="1" fill="none" fill-rule="evenodd">
        <g transform="translate(-501.000000, -1164.000000)">
            <g id="10004" transform="translate(502.000000, 1165.000000)">
                <path class="svg-theme-color-stroke" d="M17.3077,0 L2.69231,0 C1.97889,0.00198 1.29527,0.27918 0.7908,0.77103 C0.28633,1.26289 0.00203,1.92942 0,2.625 L0,11.625 C0.00203,12.3206 0.28633,12.9871 0.7908,13.479 C1.29527,13.9708 1.97889,14.248 2.69231,14.25 L4.61538,14.25 L4.61538,18 L9.1212,14.3372 C9.1903,14.2808 9.2776,14.25 9.3678,14.25 L17.3077,14.25 C18.0211,14.248 18.7047,13.9708 19.2092,13.479 C19.7137,12.9871 19.998,12.3206 20,11.625 L20,2.625 C19.998,1.92942 19.7137,1.26289 19.2092,0.77103 C18.7047,0.27918 18.0211,0.00198 17.3077,0 Z" id="路径" stroke="#CDA177" stroke-width="2" stroke-linejoin="round"></path>
                <path class="svg-theme-color-fill" d="M9.9354,6.42 C9.9354,7.1667 9.8154,7.8233 9.5754,8.39 C9.3354,8.9567 8.942,9.39 8.3954,9.69 L10.1354,11.7 L7.73535,11.7 L6.53535,10.1 L6.46535,10.1 C5.66535,10.1 5.00869,9.9467 4.49535,9.64 C3.98202,9.3333 3.60202,8.9033 3.35535,8.35 C3.11535,7.7967 2.99535,7.15 2.99535,6.41 C2.99535,5.67 3.11868,5.02667 3.36535,4.48 C3.61202,3.92667 3.99202,3.5 4.50535,3.2 C5.01869,2.9 5.67535,2.75 6.47535,2.75 C7.28869,2.75 7.94869,2.90333 8.4554,3.21 C8.9687,3.51 9.342,3.93667 9.5754,4.49 C9.8154,5.03667 9.9354,5.68 9.9354,6.42 Z M5.02535,6.42 C5.02535,7.0667 5.13535,7.5733 5.35535,7.94 C5.58202,8.3067 5.95202,8.49 6.46535,8.49 C6.99869,8.49 7.37202,8.3067 7.58535,7.94 C7.79869,7.5733 7.90535,7.0667 7.90535,6.42 C7.90535,5.77333 7.79869,5.26333 7.58535,4.89 C7.37202,4.51667 7.00202,4.33 6.47535,4.33 C5.94869,4.33 5.57535,4.51667 5.35535,4.89 C5.13535,5.26333 5.02535,5.77333 5.02535,6.42 Z M15.4088,10 L15.0588,8.66 L12.7388,8.66 L12.3788,10 L10.2588,10 L12.5888,2.83 L15.1588,2.83 L17.5188,10 L15.4088,10 Z M14.6588,7.08 L14.3488,5.91 C14.3155,5.78333 14.2688,5.60333 14.2088,5.37 C14.1488,5.13 14.0888,4.88333 14.0288,4.63 C13.9688,4.37667 13.9221,4.17 13.8888,4.01 C13.8621,4.17 13.8188,4.37 13.7588,4.61 C13.7055,4.85 13.6488,5.08667 13.5888,5.32 C13.5355,5.55333 13.4888,5.75 13.4488,5.91 L13.1388,7.08 L14.6588,7.08 Z" id="形状" fill="#CDA177" fill-rule="nonzero"></path>
            </g>
        </g>
    </g>
</svg>