<?xml version="1.0" encoding="UTF-8"?>
<svg width="22px" height="20px" viewBox="0 0 22 20" version="1.1" xmlns="http://www.w3.org/2000/svg" xmlns:xlink="http://www.w3.org/1999/xlink">
    <g id="页面-1" stroke="none" stroke-width="1" fill="none" fill-rule="evenodd">
        <g id="褐色版" transform="translate(-822.000000, -1163.000000)">
            <g id="10005" transform="translate(823.000000, 1164.000000)">
                <path class="svg-theme-color-stroke" d="M18.5714,0 L1.42857,0 C0.63959,0 0,0.64471 0,1.44 L0,12.96 C0,13.7553 0.63959,14.4 1.42857,14.4 L18.5714,14.4 C19.3604,14.4 20,13.7553 20,12.96 L20,1.44 C20,0.64471 19.3604,0 18.5714,0 Z" id="路径" stroke="#CDA177" stroke-width="2" stroke-linejoin="round"></path>
                <polygon class="svg-theme-color-stroke" stroke="#CDA177" stroke-width="2" fill="#CDA177" fill-rule="nonzero" stroke-linecap="round" stroke-linejoin="round" points="11.8182 17.0999 11.5152 14.3999 8.4849 14.3999 8.1819 17.0999"></polygon>
                <path class="svg-theme-color-stroke" d="M14.5455,18.5 C14.8216,18.5 15.0455,18.2761 15.0455,18 C15.0455,17.7239 14.8216,17.5 14.5455,17.5 L5.45459,17.5 C5.17845,17.5 4.95459,17.7239 4.95459,18 C4.95459,18.2761 5.17845,18.5 5.45459,18.5 L14.5455,18.5 Z" id="路径" stroke="#CDA177" stroke-linecap="round" stroke-linejoin="round"></path>
                <path class="svg-theme-color-fill" d="M11.9228,2.41658 C11.3868,2.00556 10.7135,1.80005 9.9029,1.80005 C9.2865,1.80005 8.766,1.94456 8.3433,2.23407 C7.67236,2.68709 7.31596,3.45663 7.27271,4.54168 L8.8276,4.54168 C8.8276,4.22516 8.9146,3.92165 9.0876,3.62763 C9.2611,3.33462 9.5554,3.18811 9.9706,3.18811 C10.3928,3.18811 10.6839,3.30712 10.8423,3.54463 C11.0017,3.78314 11.0812,4.04665 11.0812,4.33567 C11.0812,4.58768 10.9627,4.81819 10.8193,5.0272 C10.7338,5.15695 10.6288,5.27082 10.5085,5.36422 C10.5085,5.36422 9.6654,5.93924 9.2954,6.40126 C9.081,6.66878 9.0617,7.0703 9.0425,7.6453 C9.0415,7.6863 9.0561,7.7713 9.1906,7.7713 L10.3994,7.7713 C10.5198,7.7713 10.5447,7.6768 10.5461,7.6343 C10.5546,7.4253 10.5762,7.3178 10.6124,7.1968 C10.6801,6.96829 10.8653,6.76928 11.0727,6.59727 L11.5006,6.28376 C11.887,5.96324 12.195,5.70073 12.3314,5.49472 C12.5636,5.15671 12.7273,4.73969 12.7273,4.24466 C12.7268,3.43713 12.4588,2.8286 11.9228,2.41658 Z M9.878,8.7624 C9.3424,8.7449 8.9005,9.1394 8.8835,9.7574 C8.8671,10.3745 9.287,10.783 9.823,10.7995 C10.382,10.817 10.8122,10.436 10.8296,9.8179 C10.8456,9.1999 10.4375,8.7799 9.878,8.7624 Z" id="形状" fill="#CDA177" fill-rule="nonzero"></path>
                <rect class="svg-theme-color-fill" fill="#CDA177" fill-rule="nonzero" x="0.90918" y="11.7001" width="18.1818" height="1.8"></rect>
            </g>
        </g>
    </g>
</svg>