<?xml version="1.0" encoding="UTF-8"?>
<svg width="48px" height="48px" viewBox="0 0 48 48" version="1.1" xmlns="http://www.w3.org/2000/svg" xmlns:xlink="http://www.w3.org/1999/xlink">
    <defs>
        <rect id="path-1" x="0" y="0" width="24" height="22" rx="1"></rect>
    </defs>
    <g id="页面-1" stroke="none" stroke-width="1" fill="none" fill-rule="evenodd">
        <g id="褐色版" transform="translate(-1256.000000, -1721.000000)">
            <g id="编组-5" transform="translate(1130.000000, 1701.000000)">
                <g id="10009" transform="translate(126.000000, 20.000000)">
                    <circle class="svg-theme-color-fill" fill="#CDA177" cx="24" cy="24" r="24"></circle>
                    <g id="Clipped" transform="translate(12.000000, 13.000000)">
                        <mask id="mask-2" fill="white">
                            <use xlink:href="#path-1"></use>
                        </mask>
                        <g id="矩形"></g>
                        <rect id="矩形" stroke="#FFFFFF" stroke-width="4" mask="url(#mask-2)" x="0" y="0" width="24" height="22" rx="1"></rect>
                    </g>
                    <path d="M13,19.5 L23.5858,19.5 C23.851,19.5 24.1054,19.39464 24.2929,19.20711 L29.5,14" id="路径" stroke="#FFFFFF" stroke-width="2"></path>
                    <circle id="椭圆形" fill="#FFFFFF" fill-rule="nonzero" cx="15.75" cy="16.75" r="1"></circle>
                    <circle id="椭圆形" fill="#FFFFFF" fill-rule="nonzero" cx="18.75" cy="16.75" r="1"></circle>
                    <circle id="椭圆形" fill="#FFFFFF" fill-rule="nonzero" cx="21.75" cy="16.75" r="1"></circle>
                    <path d="M22.9425,22.86 L22.9425,27.16 C22.9425,28.06 22.6859,28.7767 22.1725,29.31 C21.66587,29.8367 20.89587,30.1 19.86254,30.1 C18.87587,30.1 18.12254,29.85 17.60254,29.35 C17.08921,28.8433 16.83254,28.1267 16.83254,27.2 L16.83254,22.86 L18.77254,22.86 L18.77254,27.05 C18.77254,27.5567 18.86587,27.9233 19.05254,28.15 C19.24587,28.3767 19.52587,28.49 19.89254,28.49 C20.28587,28.49 20.56921,28.3767 20.74254,28.15 C20.92254,27.9167 21.01254,27.5467 21.01254,27.04 L21.01254,22.86 L22.9425,22.86 Z M30.8709,30 L28.6409,30 L27.2509,27.77 L25.8709,30 L23.6909,30 L26.0609,26.35 L23.8309,22.86 L25.9709,22.86 L27.2609,25.07 L28.5009,22.86 L30.7009,22.86 L28.4409,26.5 L30.8709,30 Z" id="形状" fill="#FFFFFF" fill-rule="nonzero"></path>
                </g>
            </g>
        </g>
    </g>
</svg>