<?xml version="1.0" encoding="UTF-8"?>
<svg width="48px" height="48px" viewBox="0 0 48 48" version="1.1" xmlns="http://www.w3.org/2000/svg" xmlns:xlink="http://www.w3.org/1999/xlink">
    <g id="页面-1" stroke="none" stroke-width="1" fill="none" fill-rule="evenodd">
        <g id="褐色版" transform="translate(-616.000000, -1721.000000)">
            <g id="编组" transform="translate(490.000000, 1701.000000)">
                <g id="10007" transform="translate(126.000000, 20.000000)">
                    <circle class="svg-theme-color-fill" id="椭圆形" fill="#CDA177" cx="24" cy="24" r="24"></circle>
                    <path d="M32,15 L16,15 C14.897,15 14,15.897 14,17 L14,31 C14,32.103 14.897,33 16,33 L32,33 C33.103,33 34,32.103 34,31 L34,17 C34,15.897 33.103,15 32,15 Z M16,31 L16,19 L32,19 L32.002,31 L16,31 Z" id="形状" fill="#FFFFFF" fill-rule="nonzero"></path>
                    <path d="M22.0154,27.7789 C21.72248,28.0731 21.24766,28.0731 20.95471,27.7789 L18.21971,25.0324 C17.92676,24.7382 17.92676,24.2613 18.21971,23.9671 L20.95424,21.22067 C21.24719,20.92644 21.72201,20.92644 22.015,21.22067 L22.5451,21.7531 C22.838,22.0473 22.838,22.5242 22.5451,22.8184 L20.87128,24.4999975 L22.5456,26.1811 C22.8385,26.4753 22.8385,26.9522 22.5456,27.2464 L22.0154,27.7789 Z" id="路径" fill="#FFFFFF" fill-rule="nonzero"></path>
                    <path d="M25.985,27.7793 L25.4549,27.2469 C25.162,26.9527 25.162,26.4758 25.4549,26.1816 L27.1287,24.5 L25.4549,22.8189 C25.162,22.5247 25.162,22.0478 25.4549,21.75357 L25.985,21.22114 C26.278,20.92691 26.7528,20.92691 27.0458,21.22114 L29.7803,23.9676 C30.0732,24.2618 30.0732,24.7387 29.7803,25.0329 L27.0458,27.7793 C26.7528,28.0736 26.278,28.0736 25.985,27.7793 Z" id="路径" fill="#FFFFFF" fill-rule="nonzero"></path>
                </g>
            </g>
        </g>
    </g>
</svg>