<?xml version="1.0" encoding="UTF-8"?>
<svg width="48px" height="48px" viewBox="0 0 48 48" version="1.1" xmlns="http://www.w3.org/2000/svg" xmlns:xlink="http://www.w3.org/1999/xlink">
    <g id="页面-1" stroke="none" stroke-width="1" fill="none" fill-rule="evenodd">
        <g id="褐色版" transform="translate(-936.000000, -1721.000000)">
            <g id="编组-6" transform="translate(810.000000, 1701.000000)">
                <g id="10008" transform="translate(126.000000, 20.000000)">
                    <circle class="svg-theme-color-fill" fill="#CDA177" cx="24" cy="24" r="24"></circle>
                    <path d="M21.56363,24.2207 C21.798,24.4648 22.1779,24.4648 22.4123,24.2207 L22.8364,23.7789 C23.0708,23.5348 23.0708,23.1391 22.8364,22.8949 L21.49688,21.5 L22.836,20.10469 C23.0704,19.86055 23.0704,19.46484 22.836,19.2207 L22.4119,18.77891 C22.1775,18.53477 21.79763,18.53477 21.56325,18.77891 L19.3755,21.05781 C19.14113,21.30195 19.14113,21.69766 19.3755,21.9418 L21.56363,24.2207 Z M25.164,23.7793 L25.5881,24.2211 C25.8225,24.4652 26.2024,24.4652 26.4368,24.2211 L28.6245,21.94219 C28.8589,21.69805 28.8589,21.30234 28.6245,21.0582 L26.4368,18.7793 C26.2024,18.53516 25.8225,18.53516 25.5881,18.7793 L25.164,19.22109 C24.9296,19.46523 24.9296,19.86094 25.164,20.10508 L26.5031,21.5 L25.164,22.8953 C24.9296,23.1395 24.9296,23.5352 25.164,23.7793 Z M35.4,30.25 L26.3078,30.25 C26.28,31.0238 25.7561,31.5 25.08,31.5 L22.8,31.5 C22.0991,31.5 21.56175,30.8176 21.57113,30.25 L12.6,30.25 C12.27,30.25 12,30.5312 12,30.875 L12,31.5 C12,32.875 13.08,34 14.4,34 L33.6,34 C34.92,34 36,32.875 36,31.5 L36,30.875 C36,30.5312 35.73,30.25 35.4,30.25 Z M33.6,15.875 C33.6,14.84375 32.79,14 31.8,14 L16.2,14 C15.21,14 14.4,14.84375 14.4,15.875 L14.4,29 L33.6,29 L33.6,15.875 Z M31.2,26.5 L16.8,26.5 L16.8,16.5 L31.2,16.5 L31.2,26.5 Z" id="形状" fill="#FFFFFF" fill-rule="nonzero"></path>
                </g>
            </g>
        </g>
    </g>
</svg>