<?xml version="1.0" encoding="UTF-8"?>
<svg width="20px" height="18px" viewBox="0 0 20 18" version="1.1" xmlns="http://www.w3.org/2000/svg" xmlns:xlink="http://www.w3.org/1999/xlink">
    <g id="页面-1" stroke="none" stroke-width="1" fill="none" fill-rule="evenodd">
        <g class="svg-theme-color-fill" transform="translate(-502.000000, -1056.000000)" fill="#CDA177" fill-rule="nonzero">
            <g id="10002" transform="translate(502.000000, 1056.000000)">
                <path d="M18,0 L2,0 C0.897,0 0,0.897 0,2 L0,16 C0,17.103 0.897,18 2,18 L18,18 C19.103,18 20,17.103 20,16 L20,2 C20,0.897 19.103,0 18,0 Z M2,16 L2,4 L18,4 L18.002,16 L2,16 Z" id="形状"></path>
                <path d="M8.0154,12.7789 C7.72248,13.0731 7.24766,13.0731 6.95471,12.7789 L4.21971,10.0324 C3.92676,9.7382 3.92676,9.2613 4.21971,8.9671 L6.95424,6.22067 C7.24719,5.92644 7.72201,5.92644 8.015,6.22067 L8.5451,6.7531 C8.838,7.0473 8.838,7.5242 8.5451,7.8184 L6.87128,9.4999975 L8.5456,11.1811 C8.8385,11.4753 8.8385,11.9522 8.5456,12.2464 L8.0154,12.7789 Z" id="路径"></path>
                <path d="M11.985,12.7793 L11.4549,12.2469 C11.162,11.9527 11.162,11.4758 11.4549,11.1816 L13.1287,9.5 L11.4549,7.8189 C11.162,7.5247 11.162,7.0478 11.4549,6.75357 L11.985,6.22114 C12.278,5.92691 12.7528,5.92691 13.0458,6.22114 L15.7803,8.9676 C16.0732,9.2618 16.0732,9.7387 15.7803,10.0329 L13.0458,12.7793 C12.7528,13.0736 12.278,13.0736 11.985,12.7793 Z" id="路径"></path>
            </g>
        </g>
    </g>
</svg>