<?xml version="1.0" encoding="UTF-8"?>
<svg width="14px" height="22px" viewBox="0 0 14 22" version="1.1" xmlns="http://www.w3.org/2000/svg" xmlns:xlink="http://www.w3.org/1999/xlink">
    <g id="页面-1" stroke="none" stroke-width="1" fill="none" fill-rule="evenodd">
        <g class="svg-theme-color-fill" transform="translate(-1152.000000, -1054.000000)" fill="#CDA177" fill-rule="nonzero">
            <g id="10001" transform="translate(1152.000000, 1054.000000)">
                <path d="M2,4 L12,4 L12,6 L14,6 L14,2 C14,0.9 13.1,0.01 12,0.01 L2,0 C0.9,0 0,0.9 0,2 L0,6 L2,6 L2,4 Z M12,18 L2,18 L2,16 L0,16 L0,20 C0,21.1 0.9,22 2,22 L12,22 C13.1,22 14,21.1 14,20 L14,16 L12,16 L12,18 Z" id="形状"></path>
                <path d="M5.0154,14.2789 C4.72248,14.5731 4.24766,14.5731 3.95471,14.2789 L1.21971,11.5324 C0.92676,11.2382 0.92676,10.7613 1.21971,10.4671 L3.95424,7.72067 C4.24719,7.42644 4.72201,7.42644 5.015,7.72067 L5.5451,8.2531 C5.838,8.54733 5.838,9.0242 5.5451,9.3184 L3.87128,10.9999975 L5.5456,12.6811 C5.8385,12.9753 5.8385,13.4522 5.5456,13.7464 L5.0154,14.2789 Z" id="路径"></path>
                <path d="M8.985,14.2793 L8.4549,13.7469 C8.162,13.4527 8.162,12.9758 8.4549,12.6816 L10.1287,11 L8.4549,9.3189 C8.162,9.0247 8.162,8.5478 8.4549,8.25357 L8.985,7.72114 C9.278,7.42691 9.7528,7.42691 10.0458,7.72114 L12.7803,10.4676 C13.0732,10.7618 13.0732,11.2387 12.7803,11.5329 L10.0458,14.2793 C9.7528,14.5736 9.278,14.5736 8.985,14.2793 Z" id="路径"></path>
            </g>
        </g>
    </g>
</svg>