<?xml version="1.0" encoding="UTF-8"?>
<svg width="24px" height="20px" viewBox="0 0 24 20" version="1.1" xmlns="http://www.w3.org/2000/svg" xmlns:xlink="http://www.w3.org/1999/xlink">
    <g id="页面-1" stroke="none" stroke-width="1" fill="none" fill-rule="evenodd">
        <g transform="translate(-823.000000, -1055.000000)" fill="#CDA177" fill-rule="nonzero">
            <g id="10003" transform="translate(823.000000, 1055.000000)">
                <path class="svg-theme-color-fill" d="M9.56363,10.2207 C9.798,10.4648 10.1779,10.4648 10.4123,10.2207 L10.8364,9.7789 C11.0708,9.5348 11.0708,9.1391 10.8364,8.8949 L9.49688,7.5 L10.836,6.10469 C11.0704,5.86055 11.0704,5.46484 10.836,5.2207 L10.4119,4.77891 C10.1775,4.53477 9.79763,4.53477 9.56325,4.77891 L7.3755,7.05781 C7.14113,7.30195 7.14113,7.69766 7.3755,7.9418 L9.56363,10.2207 Z M13.164,9.7793 L13.5881,10.2211 C13.8225,10.4652 14.2024,10.4652 14.4368,10.2211 L16.6245,7.94219 C16.8589,7.69805 16.8589,7.30234 16.6245,7.0582 L14.4368,4.7793 C14.2024,4.53516 13.8225,4.53516 13.5881,4.7793 L13.164,5.22109 C12.9296,5.46523 12.9296,5.86094 13.164,6.10508 L14.5031,7.5 L13.164,8.8953 C12.9296,9.1395 12.9296,9.5352 13.164,9.7793 Z M23.4,16.25 L14.3078,16.25 C14.28,17.0238 13.7561,17.5 13.08,17.5 L10.8,17.5 C10.0991,17.5 9.56175,16.8176 9.57113,16.25 L0.6,16.25 C0.27,16.25 0,16.5312 0,16.875 L0,17.5 C0,18.875 1.08,20 2.4,20 L21.6,20 C22.92,20 24,18.875 24,17.5 L24,16.875 C24,16.5312 23.73,16.25 23.4,16.25 Z M21.6,1.875 C21.6,0.84375 20.79,0 19.8,0 L4.2,0 C3.21,0 2.4,0.84375 2.4,1.875 L2.4,15 L21.6,15 L21.6,1.875 Z M19.2,12.5 L4.8,12.5 L4.8,2.5 L19.2,2.5 L19.2,12.5 Z" id="形状"></path>
            </g>
        </g>
    </g>
</svg>