<?xml version="1.0" encoding="UTF-8"?>
<svg width="48px" height="48px" viewBox="0 0 48 48" version="1.1" xmlns="http://www.w3.org/2000/svg" xmlns:xlink="http://www.w3.org/1999/xlink">
    <defs>
        <rect id="path-1" x="0" y="0" width="24" height="22" rx="1"></rect>
    </defs>
    <g id="页面-1" stroke="none" stroke-width="1" fill="none" fill-rule="evenodd">
        <g id="褐色版" transform="translate(-936.000000, -2065.000000)">
            <g id="编组-3" transform="translate(810.000000, 2045.000000)">
                <g id="10011" transform="translate(126.000000, 20.000000)">
                    <circle class="svg-theme-color-fill" fill="#CDA177" cx="24" cy="24" r="24"></circle>
                    <g id="Clipped" transform="translate(12.000000, 13.000000)">
                        <mask id="mask-2" fill="white">
                            <use xlink:href="#path-1"></use>
                        </mask>
                        <g id="矩形"></g>
                        <rect id="矩形" stroke="#FFFFFF" stroke-width="4" mask="url(#mask-2)" x="0" y="0" width="24" height="22" rx="1"></rect>
                    </g>
                    <path d="M13,19.5 L23.5858,19.5 C23.851,19.5 24.1054,19.39464 24.2929,19.20711 L29.5,14" id="路径" stroke="#FFFFFF" stroke-width="2"></path>
                    <circle id="椭圆形" fill="#FFFFFF" fill-rule="nonzero" cx="15.75" cy="16.75" r="1"></circle>
                    <circle id="椭圆形" fill="#FFFFFF" fill-rule="nonzero" cx="18.75" cy="16.75" r="1"></circle>
                    <circle id="椭圆形" fill="#FFFFFF" fill-rule="nonzero" cx="21.75" cy="16.75" r="1"></circle>
                    <polygon id="路径" fill="#FFFFFF" fill-rule="nonzero" points="21.6 22 21.6 23.6 25.2688 23.6 20 28.8688 21.1312 30 26.4 24.7312 26.4 28.4 28 28.4 28 22"></polygon>
                </g>
            </g>
        </g>
    </g>
</svg>