<?xml version="1.0" encoding="UTF-8"?>
<svg width="20px" height="20px" viewBox="0 0 20 20" version="1.1" xmlns="http://www.w3.org/2000/svg" xmlns:xlink="http://www.w3.org/1999/xlink">
    <g id="页面-1" stroke="none" stroke-width="1" fill="none" fill-rule="evenodd">
        <g id="褐色版" transform="translate(-1230.000000, -3190.000000)">
            <g id="10013" transform="translate(1230.000000, 3190.000000)">
                <rect id="矩形" x="0" y="0" width="20" height="20"></rect>
                <g class="svg-theme-color-fill" transform="translate(3.000000, 1.000000)" fill="#CDA177" fill-rule="nonzero">
                    <path d="M7.20014899,10.800108 C9.18556884,10.800108 10.800185,9.18549185 10.800185,7.200072 C10.800185,5.21465215 9.18556884,3.600036 7.20014899,3.600036 C5.21472914,3.600036 3.60011299,5.21465215 3.60011299,7.200072 C3.60011299,9.18549185 5.21472914,10.800108 7.20014899,10.800108 Z M7.20014899,5.400054 C8.19285892,5.400054 9.00016699,6.20736207 9.00016699,7.200072 C9.00016699,8.19278193 8.19285892,9.00009 7.20014899,9.00009 C6.20743906,9.00009 5.40013099,8.19278193 5.40013099,7.200072 C5.40013099,6.20736207 6.20743906,5.400054 7.20014899,5.400054 Z" id="形状"></path>
                    <path d="M6.67823377,17.8327783 C6.83051529,17.9415894 7.01303712,18 7.20023899,18 C7.38744086,18 7.56987269,17.9415894 7.72224421,17.8327783 C7.99584695,17.6392764 14.4264113,12.99613 14.4003902,7.200072 C14.4003902,3.2301323 11.1701787,0 7.20023899,0 C3.23029029,0 7.87549406e-05,3.2301323 7.87549406e-05,7.19557196 C-0.0259422714,12.99613 6.40463103,17.6392764 6.67823377,17.8327783 Z M7.20023899,1.800018 C10.1783688,1.800018 12.6003603,4.22194222 12.6003603,7.20457205 C12.6191932,11.198812 8.6510535,14.7853479 7.20023899,15.9616596 C5.75032449,14.7844478 1.7812758,11.197012 1.80010872,7.200072 C1.80010872,4.22194222 4.22210021,1.800018 7.20023899,1.800018 Z" id="形状"></path>
                </g>
            </g>
        </g>
    </g>
</svg>