<?xml version="1.0" encoding="UTF-8"?>
<svg width="20px" height="20px" viewBox="0 0 20 20" version="1.1" xmlns="http://www.w3.org/2000/svg" xmlns:xlink="http://www.w3.org/1999/xlink">
    <g id="页面-1" stroke="none" stroke-width="1" fill="none" fill-rule="evenodd">
        <g id="褐色版" transform="translate(-1230.000000, -3342.000000)">
            <g id="10015" transform="translate(1230.000000, 3342.000000)">
                <rect id="矩形备份-16" x="0" y="0" width="20" height="20"></rect>
                <path class="svg-theme-color-fill" d="M18.2147847,3.85075951 L15.8185197,1.45675052 C15.5260066,1.16424702 15.1345171,1 14.7205636,1 C14.306514,1 13.9150245,1.16200061 13.6225114,1.45675052 L11.0418297,4.0330066 C10.7493166,4.32551009 10.58506,4.71926517 10.58506,5.13326673 C10.58506,5.54951469 10.7470126,5.93876736 11.0418297,6.23351726 L13.0578373,8.25177125 C12.5985716,9.32188727 11.9386651,10.2940829 11.11383,11.116038 C10.2880349,11.9462491 9.32275127,12.6010676 8.25177125,13.0645573 L6.23577327,11.0462457 C5.94326977,10.7538286 5.5517707,10.589572 5.13776915,10.589572 C4.93355718,10.588804 4.73126522,10.6288362 4.54272051,10.7071725 C4.3541758,10.7856048 4.18317996,10.9009012 4.03976502,11.0462457 L1.45675052,13.6225114 C1.16424702,13.9150245 1,14.308818 1,14.7227716 C1,15.1390291 1.16200061,15.5283106 1.45675052,15.8230317 L3.85075951,18.2170887 C4.35025899,18.7165786 5.03876397,19.0022756 5.74526903,19.0022756 C5.89151598,19.0022756 6.03327011,18.9910436 6.17727065,18.9662755 C9.15628665,18.4758097 12.1128098,16.8895957 14.5000507,14.5045627 C16.8850837,12.1150178 18.4690896,9.15849465 18.9640675,6.17727065 C19.10586,5.33126747 18.822275,4.4605154 18.2147847,3.85075951 Z M17.3688295,5.90951605 C16.9301079,8.56223641 15.5035425,11.2082944 13.3547664,13.3570704 C11.2059903,15.5058465 8.56223641,16.9323159 5.90951605,17.3710375 C5.5765196,17.4272937 5.23451831,17.3147813 4.9915126,17.0740124 L2.64025256,14.7227716 L5.13326673,12.2275302 L7.82877446,14.9275403 L7.84902093,14.9477964 L8.33500356,14.7677957 C9.8086091,14.2259697 11.1467581,13.3703185 12.2568103,12.2598823 C13.3667665,11.1495421 14.2220337,9.81110511 14.7632837,8.33730757 L14.9432844,7.85127694 L12.2253222,5.13551314 L14.7182595,2.64025256 L17.0695964,4.9915126 C17.3125733,5.23451831 17.4250857,5.5765196 17.3688295,5.90951605 Z" id="形状" fill="#CDA177" fill-rule="nonzero"></path>
            </g>
        </g>
    </g>
</svg>