<?xml version="1.0" encoding="UTF-8"?>
<svg width="48px" height="48px" viewBox="0 0 48 48" version="1.1" xmlns="http://www.w3.org/2000/svg" xmlns:xlink="http://www.w3.org/1999/xlink">
    <g id="页面-1" stroke="none" stroke-width="1" fill="none" fill-rule="evenodd">
        <g id="褐色版" transform="translate(-616.000000, -2065.000000)">
            <g id="编组-2" transform="translate(490.000000, 2045.000000)">
                <g id="10010" transform="translate(126.000000, 20.000000)">
                    <circle class="svg-theme-color-fill" fill="#CDA177" cx="24" cy="24" r="24"></circle>
                    <path d="M32.5714,15 L15.42857,15 C14.63959,15 14,15.64471 14,16.44 L14,27.96 C14,28.7553 14.63959,29.4 15.42857,29.4 L32.5714,29.4 C33.3604,29.4 34,28.7553 34,27.96 L34,16.44 C34,15.64471 33.3604,15 32.5714,15 Z" id="路径" stroke="#FFFFFF" stroke-width="2" stroke-linejoin="round"></path>
                    <polygon id="路径" stroke="#FFFFFF" stroke-width="2" fill="#FFFFFF" fill-rule="nonzero" stroke-linecap="round" stroke-linejoin="round" points="25.8182 32.0999 25.5152 29.3999 22.4849 29.3999 22.1819 32.0999"></polygon>
                    <path d="M28.5455,33.5 C28.8216,33.5 29.0455,33.2761 29.0455,33 C29.0455,32.7239 28.8216,32.5 28.5455,32.5 L19.45459,32.5 C19.17845,32.5 18.95459,32.7239 18.95459,33 C18.95459,33.2761 19.17845,33.5 19.45459,33.5 L28.5455,33.5 Z" id="路径" stroke="#FFFFFF" stroke-linecap="round" stroke-linejoin="round"></path>
                    <rect id="矩形" fill="#FFFFFF" fill-rule="nonzero" x="14.90918" y="26.7001" width="18.1818" height="1.8"></rect>
                    <path d="M23.9999,20.25 C23.7527,20.25 23.511,20.32331 23.3055,20.46066 C23.0999,20.59801 22.9397,20.79324 22.8451,21.02165 C22.7505,21.25005 22.7257,21.50139 22.774,21.74386 C22.8222,21.98634 22.9412,22.2091 23.1161,22.3839 C23.2909,22.5587 23.5136,22.6778 23.7561,22.726 C23.9986,22.7742 24.2499,22.7495 24.4783,22.6548 C24.7067,22.5602 24.9019,22.4 25.0393,22.1945 C25.1766,21.9889 25.2499,21.74723 25.2499,21.5 C25.249,21.16878 25.1169,20.85142 24.8827,20.61721 C24.6485,20.383 24.3312,20.25099 23.9999,20.25 Z M26.6987,21.5 C26.698,21.6168 26.6895,21.73342 26.6731,21.84906 L27.4338,22.4447 C27.467,22.472 27.4893,22.5103 27.4968,22.5526 C27.5044,22.5949 27.4966,22.6385 27.4749,22.6756 L26.7553,23.9181 C26.7334,23.9549 26.6992,23.9828 26.6588,23.9969 C26.6184,24.011 26.5743,24.0104 26.5343,23.9952 L25.6398,23.6358 C25.4535,23.7792 25.2497,23.8983 25.0332,23.99 L24.8995,24.9397 C24.892,24.9822 24.87,25.0208 24.8372,25.0489 C24.8044,25.077 24.7628,25.0929 24.7196,25.0938 L23.2803,25.0938 C23.2379,25.0929 23.197,25.0778 23.1643,25.0507 C23.1317,25.0237 23.1091,24.9863 23.1004,24.9448 L22.9667,23.9952 C22.7496,23.9045 22.5456,23.7852 22.3601,23.6406 L21.46557,24 C21.42558,24.0152 21.38151,24.0159 21.3411,24.0018 C21.30069,23.9877 21.26653,23.9599 21.24463,23.9231 L20.52494,22.6808 C20.50328,22.6437 20.49552,22.6001 20.50305,22.5578 C20.51057,22.5155 20.5329,22.4772 20.56603,22.4498 L21.32682,21.85422 C21.31059,21.73683 21.30203,21.6185 21.30119,21.5 C21.30184,21.3832 21.3104,21.26658 21.32682,21.15094 L20.56603,20.55531 C20.5329,20.52795 20.51057,20.4897 20.50305,20.4474 C20.49552,20.40509 20.50328,20.36149 20.52494,20.32437 L21.24463,19.08187 C21.26651,19.04509 21.30065,19.0172 21.34107,19.00311 C21.38148,18.98902 21.42556,18.98964 21.46557,19.00484 L22.3601,19.36422 C22.5464,19.22078 22.7502,19.10175 22.9667,19.01 L23.1004,18.06031 C23.1079,18.01777 23.1299,17.97915 23.1627,17.95105 C23.1955,17.92295 23.2371,17.90712 23.2803,17.90625 L24.7196,17.90625 C24.762,17.90708 24.8029,17.92225 24.8356,17.94929 C24.8682,17.97634 24.8908,18.01366 24.8995,18.05516 L25.0332,19.00484 C25.2505,19.09546 25.4548,19.21469 25.6406,19.35938 L26.5343,19 C26.5743,18.98478 26.6184,18.98414 26.6588,18.9982 C26.6992,19.01226 26.7334,19.04012 26.7553,19.07687 L27.4749,20.31938 C27.4966,20.35649 27.5044,20.40009 27.4968,20.4424 C27.4893,20.4847 27.467,20.52295 27.4338,20.55031 L26.6731,21.14594 C26.6893,21.26328 26.6978,21.38155 26.6987,21.5 Z" id="形状" fill="#FFFFFF" fill-rule="nonzero"></path>
                </g>
            </g>
        </g>
    </g>
</svg>