<?xml version="1.0" encoding="UTF-8"?>
<svg width="20px" height="20px" viewBox="0 0 20 20" version="1.1" xmlns="http://www.w3.org/2000/svg" xmlns:xlink="http://www.w3.org/1999/xlink">
    <g id="页面-1" stroke="none" stroke-width="1" fill="none" fill-rule="evenodd">
        <g id="褐色版" transform="translate(-1230.000000, -3273.000000)">
            <g id="10014" transform="translate(1230.000000, 3273.000000)">
                <rect id="矩形备份-17" x="0" y="0" width="20" height="20"></rect>
                <path class="svg-theme-color-fill" d="M16.3,3 L3.7,3 C2.983915,3 2.297161,3.284463 1.790812,3.790812 C1.284463,4.297161 1,4.983915 1,5.7 L1,14.7 C1,15.41604 1.284463,16.10283 1.790812,16.60917 C2.297161,17.11551 2.983915,17.4 3.7,17.4 L16.3,17.4 C17.01604,17.4 17.70283,17.11551 18.20917,16.60917 C18.71551,16.10283 19,15.41604 19,14.7 L19,5.7 C19,4.983915 18.71551,4.297161 18.20917,3.790812 C17.70283,3.284463 17.01604,3 16.3,3 Z M15.697,4.8 L10,9.075 L4.303,4.8 L15.697,4.8 Z M16.3,15.6 L3.7,15.6 C3.461302,15.6 3.232387,15.50514 3.063601,15.33639 C2.894824,15.16764 2.8,14.93868 2.8,14.7 L2.8,5.925 L9.46,10.92 C9.61579,11.03682 9.80524,11.1 10,11.1 C10.19476,11.1 10.38421,11.03682 10.54,10.92 L17.2,5.925 L17.2,14.7 C17.2,14.93868 17.10514,15.16764 16.93639,15.33639 C16.76764,15.50514 16.53868,15.6 16.3,15.6 Z" id="形状" fill="#CDA177" fill-rule="nonzero"></path>
            </g>
        </g>
    </g>
</svg>