<?xml version="1.0" encoding="UTF-8"?>
<svg width="60px" height="60px" viewBox="0 0 60 60" version="1.1" xmlns="http://www.w3.org/2000/svg" xmlns:xlink="http://www.w3.org/1999/xlink">
    <title>jr</title>
    <g id="页面-1" stroke="none" stroke-width="1" fill="none" fill-rule="evenodd">
        <g id="褐色版" transform="translate(-930.000000, -1366.000000)">
            <g id="jr" transform="translate(930.000000, 1366.000000)">
                <g id="10006" transform="translate(21.000000, 21.000000)" fill="#FFFFFF" fill-rule="nonzero">
                    <path d="M18.3859628,6.33830985 L12.6901628,5.51708985 L10.1439628,0.396149853 C10.0743628,0.255939853 9.95996284,0.142439853 9.81866284,0.0734498526 C9.46426284,-0.100140147 9.03346284,0.0445198526 8.85626284,0.396149853 L6.31008284,5.51708985 L0.614252841,6.33830985 C0.457222841,6.36056985 0.313642841,6.43400985 0.203722841,6.54528985 C0.0708328412,6.68078985 -0.00239715884,6.86308985 5.98916702e-05,7.05209985 C0.00265284116,7.24119985 0.0807228412,7.42149985 0.217182841,7.55349985 L4.33819284,11.5393999 L3.36458284,17.1676999 C3.34175284,17.2986999 3.35635284,17.4332999 3.40674284,17.5563999 C3.45712284,17.6794999 3.54127284,17.7861999 3.64964284,17.8642999 C3.75801284,17.9423999 3.88626284,17.9886999 4.01986284,17.9981999 C4.15346284,18.0076999 4.28705284,17.9797999 4.40549284,17.9176999 L9.50005989,15.2604999 L14.5947628,17.9176999 C14.7337628,17.9911999 14.8953628,18.0156999 15.0501628,17.9889999 C15.4404628,17.9221999 15.7029628,17.5549999 15.6356628,17.1676999 L14.6620628,11.5393999 L18.7830628,7.55349985 C18.8951628,7.44439985 18.9692628,7.30199985 18.9916628,7.14619985 C19.0522628,6.75670985 18.7785628,6.39617985 18.3859628,6.33830985 Z M12.9279628,10.9784999 L13.7377628,15.6587999 L9.50006284,13.4510999 L5.26244284,15.6609999 L6.07229284,10.9807999 L2.64447284,7.66469985 L7.38236284,6.98148985 L9.50006284,2.72404985 L11.6178628,6.98148985 L16.3557628,7.66469985 L12.9279628,10.9784999 Z" id="形状"></path>
                </g>
                <circle id="椭圆形" stroke="#FFFFFF" cx="30" cy="30" r="29.5"></circle>
            </g>
        </g>
    </g>
</svg>